<svg width="169" height="55" viewBox="0 0 169 55" fill="none" xmlns="http://www.w3.org/2000/svg">
<g clip-path="url(#clip0_2024_25204)">
<path d="M0.992188 27.3668L20.359 8V16.8007L5.41188 31.7478L0.992188 27.3668Z" fill="url(#paint0_linear_2024_25204)"/>
<path d="M15.8359 42.314L35.2027 22.9473V31.748L20.2556 46.6951L15.8359 42.314Z" fill="url(#paint1_linear_2024_25204)"/>
<path d="M24.6625 27.3283L5.30859 46.6951V37.8943L20.2428 22.9473L24.6625 27.3283Z" fill="url(#paint2_linear_2024_25204)"/>
<path d="M49.2612 29.2354H58.4098V24.9059H49.2612V21.298H59.286V16.8525H49.2612H48.1788H44.0039V37.7011H48.1788H49.2612H59.4664V33.2557H49.2612V29.2354Z" fill="white"/>
<path d="M75.1735 17.6643C74.0911 17.1231 72.8928 16.8525 71.5527 16.8525H67.6098H66.5274H62.3525V37.7011H67.6098V30.2276H71.5527C72.8799 30.2276 74.0911 29.957 75.1735 29.4287C76.2559 28.9004 77.1063 28.1273 77.7377 27.1222C78.3691 26.1171 78.6784 24.9188 78.6784 23.553C78.6784 22.1356 78.3691 20.9372 77.7377 19.945C77.1063 18.9657 76.2559 18.2055 75.1735 17.6643ZM73.0603 25.0863C72.8026 25.4987 72.4676 25.8079 72.0424 26.0141C71.6172 26.2202 71.1533 26.3233 70.6507 26.3233H67.6227V20.7697H70.6507C71.1662 20.7697 71.63 20.8728 72.0424 21.079C72.4676 21.2851 72.8026 21.5944 73.0603 22.0196C73.318 22.4448 73.4469 22.9602 73.4469 23.5658C73.4469 24.1715 73.318 24.674 73.0603 25.0863Z" fill="white"/>
<path d="M85.6362 16.8525H80.3789V37.7011H85.6362V16.8525Z" fill="white"/>
<path d="M101.64 32.8951C100.893 33.2044 100.03 33.3461 99.0504 33.3461C98.2128 33.3461 97.4397 33.2044 96.7439 32.9209C96.0481 32.6374 95.4425 32.2251 94.9399 31.6839C94.4245 31.1427 94.038 30.4984 93.7545 29.764C93.471 29.0166 93.3293 28.1919 93.3293 27.2642C93.3293 26.3493 93.471 25.5118 93.7545 24.7644C94.038 24.0171 94.4374 23.3728 94.9399 22.8445C95.4554 22.3033 96.0481 21.9039 96.7439 21.6204C97.4397 21.3498 98.2128 21.2081 99.0504 21.2081C100.03 21.2081 100.88 21.3627 101.615 21.6848C102.336 21.9941 102.942 22.4322 103.431 22.9734L106.962 19.4428C105.957 18.5279 104.81 17.8063 103.496 17.278C102.182 16.7626 100.7 16.5049 99.0504 16.5049C97.4784 16.5049 96.0223 16.7755 94.6822 17.3295C93.3422 17.8836 92.1696 18.631 91.1516 19.5974C90.1466 20.5638 89.3606 21.6848 88.7936 22.9991C88.2395 24.3006 87.9561 25.7308 87.9561 27.2771C87.9561 28.8104 88.2395 30.2278 88.7936 31.5422C89.3477 32.8565 90.1337 34.0033 91.1516 34.9697C92.1567 35.9361 93.3422 36.6963 94.6951 37.2375C96.0481 37.7787 97.517 38.0493 99.1019 38.0493C100.829 38.0493 102.336 37.7916 103.612 37.289C104.9 36.7736 106.047 36.0649 107.065 35.1372L103.547 31.5808C103.019 32.1607 102.388 32.5859 101.64 32.8951Z" fill="white"/>
<path d="M126.058 19.5583C125.053 18.579 123.881 17.8188 122.528 17.2776C121.175 16.7364 119.693 16.4658 118.082 16.4658C116.472 16.4658 114.99 16.7364 113.637 17.2776C112.284 17.8188 111.111 18.579 110.106 19.5583C109.101 20.5376 108.328 21.6844 107.774 22.9858C107.22 24.2873 106.937 25.7047 106.937 27.238C106.937 28.7714 107.22 30.1888 107.787 31.516C108.354 32.8432 109.14 33.99 110.158 34.9693C111.163 35.9486 112.348 36.7088 113.701 37.2629C115.054 37.8169 116.536 38.0875 118.147 38.0875C119.732 38.0875 121.201 37.8169 122.541 37.2758C123.881 36.7346 125.053 35.9743 126.058 34.9822C127.064 33.99 127.837 32.8432 128.391 31.5289C128.945 30.2146 129.228 28.7972 129.228 27.2638C129.228 25.7304 128.945 24.313 128.391 22.9987C127.837 21.6844 127.064 20.5376 126.058 19.5583ZM123.146 30.4723C122.67 31.4 122.012 32.1087 121.149 32.6241C120.286 33.1395 119.268 33.3844 118.095 33.3844C117.219 33.3844 116.42 33.2426 115.711 32.9591C115.003 32.6757 114.397 32.2633 113.895 31.7221C113.379 31.181 112.993 30.5367 112.735 29.7765C112.464 29.0162 112.336 28.1787 112.336 27.238C112.336 26.0268 112.567 24.9573 113.044 24.0296C113.521 23.1147 114.178 22.3931 115.041 21.9035C115.905 21.4009 116.923 21.1561 118.095 21.1561C118.971 21.1561 119.77 21.2978 120.479 21.5942C121.188 21.8906 121.793 22.3029 122.296 22.8441C122.811 23.3853 123.198 24.0296 123.456 24.764C123.726 25.5114 123.855 26.336 123.855 27.238C123.855 28.475 123.623 29.5445 123.146 30.4723Z" fill="white"/>
<path d="M148.106 19.7387C147.101 18.8238 145.928 18.1022 144.575 17.6126C143.222 17.1229 141.74 16.8652 140.13 16.8652H136.805H134.872H131.548V37.7138H135.104H136.805H140.181C141.766 37.7138 143.235 37.469 144.575 36.9665C145.915 36.4639 147.088 35.7552 148.093 34.8404C149.098 33.9255 149.871 32.8174 150.425 31.5417C150.979 30.2661 151.263 28.8487 151.263 27.2766C151.263 25.7304 150.979 24.313 150.425 23.0373C149.884 21.7617 149.098 20.6535 148.106 19.7387ZM145.193 30.4851C144.717 31.3742 144.047 32.0442 143.183 32.4952C142.307 32.9462 141.289 33.1653 140.117 33.1653H136.818V21.3751H140.117C141.289 21.3751 142.307 21.6071 143.17 22.0452C144.034 22.4962 144.704 23.1533 145.181 24.0295C145.657 24.9057 145.902 25.9623 145.902 27.2251C145.902 28.5136 145.67 29.596 145.193 30.4851Z" fill="white"/>
<path d="M158.788 33.2557V29.2354H167.936V24.9059H158.788V21.298H168.812V16.8525H158.788H157.705H153.53V37.7011H157.705H158.788H168.993V33.2557H158.788Z" fill="white"/>
</g>
<defs>
<linearGradient id="paint0_linear_2024_25204" x1="0.992188" y1="19.8739" x2="20.359" y2="19.8739" gradientUnits="userSpaceOnUse">
<stop stop-color="#26008F"/>
<stop offset="0.7898" stop-color="#CB2376"/>
</linearGradient>
<linearGradient id="paint1_linear_2024_25204" x1="15.8359" y1="34.8212" x2="35.2027" y2="34.8212" gradientUnits="userSpaceOnUse">
<stop stop-color="#26008F"/>
<stop offset="0.7898" stop-color="#CB2376"/>
</linearGradient>
<linearGradient id="paint2_linear_2024_25204" x1="24.6625" y1="34.8212" x2="5.30859" y2="34.8212" gradientUnits="userSpaceOnUse">
<stop offset="0.2102" stop-color="#CB2376"/>
<stop offset="1" stop-color="#26008F"/>
</linearGradient>
<clipPath id="clip0_2024_25204">
<rect width="168" height="38.6949" fill="white" transform="translate(0.992188 8)"/>
</clipPath>
</defs>
</svg>
